<svg xmlns="http://www.w3.org/2000/svg"  fill="none" >
<symbol id="disceta2-icon" viewBox="0 0 28 28">
<path fill="currentColor" d="M0 0h2.154v2.154H0zM0 2.154h2.154v2.154H0zM0 4.308h2.154v2.154H0zM0 6.462h2.154v2.154H0z"/><path fill="#000" d="M0 8.615h2.154v2.154H0zM0 10.77h2.154v2.154H0z"/><path fill="#000" d="M0 12.923h2.154v2.154H0zM0 15.077h2.154v2.154H0z"/><path fill="#000" d="M0 17.23h2.154v2.154H0zM0 19.385h2.154v2.154H0z"/><path fill="#000" d="M0 21.538h2.154v2.154H0zM0 23.692h2.154v2.154H0zM0 25.846h2.154V28H0zM23.693 0v2.154h-2.154V0z"/><path fill="#000" d="M21.54 0v2.154h-2.155V0zM19.384 0v2.154H17.23V0zM17.23 0v2.154h-2.154V0z"/><path fill="#000" d="M15.077 0v2.154h-2.154V0zM12.923 0v2.154H10.77V0zM10.77 0v2.154H8.615V0z"/><path fill="#000" d="M8.616 0v2.154H6.462V0zM6.46 0v2.154H4.308V0zM4.307 0v2.154H2.153V0zM25.847 2.154v2.154h-2.154V2.154zM6.46 4.308v2.154H4.308V4.308zM6.461 2.154v2.154H4.307V2.154zM6.46 6.462v2.154H4.308V6.462zM21.539 4.308v2.154h-2.154V4.308zM21.54 2.154v2.154h-2.155V2.154zM21.539 6.462v2.154h-2.154V6.462zM17.23 4.307v2.154h-2.154V4.307z"/><path fill="#000" d="M17.23 2.154v2.154h-2.153V2.154zM17.23 6.461v2.154h-2.154V6.461zM21.54 8.615v2.154h-2.155V8.615zM19.384 8.615v2.154H17.23V8.615zM17.23 8.615v2.154h-2.153V8.615zM15.077 8.615v2.154h-2.154V8.615zM12.923 8.615v2.154H10.77V8.615zM10.77 8.616v2.154H8.616V8.616zM8.616 8.615v2.154H6.462V8.615zM6.461 8.615v2.154H4.307V8.615zM23.693 15.077v2.154h-2.154v-2.154z"/><path fill="#000" d="M21.54 15.077v2.154h-2.155v-2.154zM19.384 15.077v2.154H17.23v-2.154zM17.23 15.077v2.154h-2.153v-2.154zM15.077 15.077v2.154h-2.154v-2.154zM12.923 15.077v2.154H10.77v-2.154zM10.77 15.078v2.154H8.616v-2.154zM8.616 15.077v2.154H6.462v-2.154zM6.461 15.077v2.154H4.307v-2.154zM23.693 17.23v2.155H21.54V17.23z"/><path fill="#000" d="M6.461 17.23v2.155H4.307V17.23zM23.692 19.385v2.154h-2.154v-2.154zM6.46 19.385v2.154H4.308v-2.154z"/><path fill="#000" d="M23.693 21.538v2.154h-2.154v-2.154zM6.461 21.538v2.154H4.307v-2.154zM6.461 23.692v2.154H4.307v-2.154zM23.693 23.693v2.154H21.54v-2.154z"/><path fill="#000" d="M25.846 25.845V28h-2.154v-2.154zM23.692 25.846V28h-2.154v-2.154z"/><path fill="#000" d="M21.539 25.846V28h-2.154v-2.154zM19.384 25.846V28H17.23v-2.154zM17.23 25.845V28h-2.154v-2.154z"/><path fill="#000" d="M15.077 25.846V28h-2.155v-2.154z"/><path fill="#000" d="M12.923 25.846v2.153h-2.154v-2.153z"/><path fill="#000" d="M10.77 25.846V28H8.614v-2.154z"/><path fill="#000" d="M8.616 25.846V28H6.462v-2.154zM6.46 25.846V28H4.308v-2.154zM4.307 25.845V28H2.153v-2.154zM28 28h-2.154v-2.154H28zM28 25.845h-2.154v-2.154H28z"/><path fill="#000" d="M28 23.693h-2.154v-2.154H28zM28 21.538h-2.154v-2.154H28z"/><path fill="#000" d="M28 19.385h-2.154V17.23H28z"/><path fill="#000" d="M28 17.231h-2.154v-2.154H28zM28 15.077h-2.154v-2.154H28zM28 12.923h-2.154v-2.154H28zM28 10.769h-2.154V8.615H28zM28 8.615h-2.154V6.461H28z"/><path fill="#000" d="M28 6.462h-2.154V4.308H28z"/>
</symbol>

<symbol id="disceta-icon" viewBox="0 0 21 21">
<path fill="currentColor" d="M0 0h1.615v1.615H0zM0 1.615h1.615V3.23H0zM0 3.23h1.615v1.615H0zM0 4.846h1.615v1.615H0zM0 6.462h1.615v1.615H0zM0 8.077h1.615v1.615H0zM0 9.692h1.615v1.615H0zM0 11.308h1.615v1.615H0zM0 12.923h1.615v1.615H0zM0 14.538h1.615v1.615H0zM0 16.154h1.615v1.615H0zM0 17.77h1.615v1.615H0zM0 19.385h1.615V21H0zM17.77 0v1.615h-1.616V0zM16.154 0v1.615h-1.615V0zM14.539 0v1.615h-1.615V0zM12.923 0v1.615h-1.615V0zM11.308 0v1.615H9.693V0zM9.692 0v1.615H8.077V0zM8.077 0v1.615H6.462V0zM6.462 0v1.615H4.847V0zM4.846 0v1.615H3.231V0zM3.23 0v1.615H1.617V0zM19.385 1.616V3.23H17.77V1.616zM4.847 3.23v1.615H3.232V3.23zM4.846 1.615V3.23H3.231V1.615zM4.846 4.846V6.46H3.23V4.846zM16.154 3.23v1.616H14.54V3.23zM16.154 1.615V3.23h-1.615V1.615zM16.153 4.846V6.46H14.54V4.846zM12.924 3.23v1.615h-1.615V3.23zM12.923 1.615V3.23h-1.615V1.615zM12.923 4.846V6.46h-1.615V4.846zM16.154 6.462v1.615h-1.615V6.462zM14.538 6.462v1.615h-1.615V6.462zM12.923 6.462v1.615h-1.615V6.462zM11.308 6.462v1.615H9.693V6.462zM9.692 6.462v1.615H8.077V6.462zM8.077 6.462v1.615H6.462V6.462zM6.461 6.462v1.615H4.846V6.462zM4.846 6.462v1.615H3.231V6.462zM17.769 11.307v1.615h-1.615v-1.615zM16.153 11.308v1.615h-1.615v-1.615z"/><path fill="currentColor" d="M14.538 11.308v1.615h-1.615v-1.615zM12.923 11.308v1.614h-1.615v-1.615zM11.307 11.308v1.615H9.692v-1.615zM9.692 11.307v1.615H8.077v-1.615zM8.076 11.308v1.615H6.461v-1.615zM6.461 11.308v1.615H4.846v-1.615zM4.846 11.307v1.615H3.23v-1.615zM17.77 12.923v1.615h-1.616v-1.615zM4.846 12.923v1.615H3.231v-1.615z"/><path fill="currentColor" d="M17.77 14.538v1.615h-1.616v-1.615zM4.846 14.538v1.615H3.231v-1.615zM17.77 16.154v1.615h-1.615v-1.615zM4.846 16.154v1.615H3.231v-1.615zM4.846 17.77v1.614H3.23V17.77zM17.769 17.77v1.614h-1.615V17.77zM19.384 19.385V21H17.77v-1.615zM17.77 19.384V21h-1.616v-1.615zM16.154 19.385V21h-1.615v-1.615zM14.538 19.385V21h-1.615v-1.615zM12.923 19.385V21h-1.615v-1.615zM11.307 19.385V21H9.692v-1.615zM9.692 19.385V21H8.077v-1.615zM8.077 19.385V21H6.462v-1.615zM6.461 19.385V21H4.846v-1.615zM4.846 19.385V21H3.231v-1.615zM3.23 19.385V21H1.617v-1.615zM21 21h-1.615v-1.615H21zM21 19.385h-1.615V17.77H21zM21 17.769h-1.615v-1.615H21z"/><path fill="currentColor" d="M21 16.155h-1.615V14.54H21zM21 14.538h-1.615v-1.615H21zM21 12.923h-1.615v-1.615H21zM21 11.307h-1.615V9.692H21z"/><path fill="currentColor" d="M21 9.693h-1.615V8.078H21zM21 8.077h-1.615V6.462H21zM21 6.462h-1.615V4.847H21zM21 4.845h-1.615V3.23H21z"/>
</symbol>

<symbol id="disceta3-icon" viewBox="0 0 39 39">
<path fill="currentColor" d="M0 0h3v3H0zM0 3h3v3H0zM0 6h3v3H0zM0 9h3v3H0zM0 12h3v3H0zM0 15h3v3H0zM0 18h3v3H0zM0 21h3v3H0zM0 24h3v3H0zM0 27h3v3H0zM0 30h3v3H0zM0 33h3v3H0zM0 36h3v3H0zM33 0v3h-3V0zM30 0v3h-3V0zM27 0v3h-3V0zM24 0v3h-3V0zM21 0v3h-3V0zM18 0v3h-3V0zM15 0v3h-3V0zM12 0v3H9V0zM9 0v3H6V0zM6 0v3H3V0zM36 3v3h-3V3zM9 6v3H6V6zM9 3v3H6V3zM9 9v3H6V9zM30 6v3h-3V6zM30 3v3h-3V3zM30 9v3h-3V9zM24 6v3h-3V6zM24 3v3h-3V3zM24 9v3h-3V9zM30 12v3h-3v-3zM27 12v3h-3v-3zM24 12v3h-3v-3zM21 12v3h-3v-3zM18 12v3h-3v-3zM15 12v3h-3v-3zM12 12v3H9v-3zM9 12v3H6v-3zM33 21v3h-3v-3zM30 21v3h-3v-3zM27 21v3h-3v-3zM24 21v3h-3v-3zM21 21v3h-3v-3zM18 21v3h-3v-3zM15 21v3h-3v-3zM12 21v3H9v-3zM9 21v3H6v-3zM33 24v3h-3v-3zM9 24v3H6v-3zM33 27v3h-3v-3zM9 27v3H6v-3zM33 30v3h-3v-3zM9 30v3H6v-3zM9 33v3H6v-3zM33 33v3h-3v-3zM36 36v3h-3v-3zM33 36v3h-3v-3zM30 36v3h-3v-3zM27 36v3h-3v-3zM24 36v3h-3v-3zM21 36v3h-3v-3zM18 36v3h-3v-3zM15 36v3h-3v-3zM12 36v3H9v-3zM9 36v3H6v-3zM6 36v3H3v-3zM39 39h-3v-3h3zM39 36h-3v-3h3zM39 33h-3v-3h3zM39 30h-3v-3h3zM39 27h-3v-3h3zM39 24h-3v-3h3zM39 21h-3v-3h3zM39 18h-3v-3h3zM39 15h-3v-3h3zM39 12h-3V9h3zM39 9h-3V6h3z"/>
</symbol>
</svg>

